<svg width="24" height="32" viewBox="0 0 24 32" fill="none" xmlns="http://www.w3.org/2000/svg">
<path d="M16.3348 5.10366C16.892 4.40655 17.3168 3.59683 17.5849 2.721C17.853 1.84516 17.959 0.920463 17.897 0C16.1865 0.149889 14.5987 1.02322 13.4757 2.43184C12.9379 3.10695 12.5304 3.89235 12.2773 4.74152C12.0241 5.59068 11.9305 6.48636 12.0019 7.37551C12.8363 7.38306 13.6611 7.18208 14.4124 6.78812C15.1638 6.39417 15.8215 5.81781 16.3348 5.10366ZM20.0487 17.0069C20.0586 15.7809 20.3561 14.5779 20.913 13.5114C21.47 12.4449 22.2681 11.55 23.232 10.9113C22.6237 9.95972 21.8195 9.17512 20.8832 8.61971C19.9469 8.06429 18.9043 7.75333 17.8381 7.71149C15.539 7.4555 13.4168 9.16739 12.1935 9.16739C10.9703 9.16739 9.24599 7.74349 7.33009 7.77548C6.07758 7.82027 4.85714 8.2167 3.78781 8.92611C2.71849 9.63551 1.83678 10.6337 1.2287 11.8232C-1.36514 16.7189 0.5655 23.9984 3.15933 27.9501C4.33835 29.886 5.81211 32.0779 7.75749 31.9979C9.70286 31.9179 10.3366 30.686 12.5914 30.686C14.8463 30.686 15.539 31.9979 17.4549 31.9499C19.3708 31.9019 20.7266 29.966 21.9646 28.0301C22.8416 26.6247 23.5266 25.0889 23.9984 23.4704C22.8304 22.9297 21.8339 22.0294 21.132 20.8807C20.4301 19.732 20.0535 18.3853 20.0487 17.0069Z" fill="black"/>
</svg>
