<svg width="32" height="32" viewBox="0 0 32 32" fill="none" xmlns="http://www.w3.org/2000/svg">
<g clip-path="url(#clip0_420_1006)">
<path d="M31.9831 16.2994C31.9831 14.9883 31.8742 14.0316 31.6386 13.0395H16.3187V18.9568H25.3112C25.1299 20.4274 24.1509 22.642 21.9753 24.1301L21.9448 24.3282L26.7886 27.9951L27.1242 28.0279C30.2063 25.2463 31.9831 21.1537 31.9831 16.2994Z" fill="#4285F4"/>
<path d="M16.3187 31.8901C20.7242 31.8901 24.4227 30.4727 27.1242 28.0279L21.9752 24.1301C20.5974 25.0691 18.7481 25.7246 16.3187 25.7246C12.0038 25.7246 8.34151 22.9432 7.03602 19.0986L6.84466 19.1145L1.80793 22.9236L1.74207 23.1025C4.42529 28.3112 9.93684 31.8901 16.3187 31.8901Z" fill="#34A853"/>
<path d="M7.03599 19.0986C6.69152 18.1065 6.49217 17.0434 6.49217 15.945C6.49217 14.8465 6.69152 13.7836 7.01786 12.7915L7.00874 12.5802L1.90889 8.70987L1.74203 8.78743C0.636146 10.9489 0.00158691 13.3761 0.00158691 15.945C0.00158691 18.514 0.636146 20.9411 1.74203 23.1025L7.03599 19.0986Z" fill="#FBBC05"/>
<path d="M16.3187 6.16537C19.3826 6.16537 21.4494 7.45869 22.6279 8.53948L27.2329 4.14571C24.4047 1.57679 20.7242 0 16.3187 0C9.93684 0 4.42529 3.57875 1.74207 8.78742L7.0179 12.7915C8.34151 8.94693 12.0038 6.16537 16.3187 6.16537Z" fill="#EB4335"/>
</g>
<defs>
<clipPath id="clip0_420_1006">
<rect width="32" height="32" fill="white"/>
</clipPath>
</defs>
</svg>
